<svg width="256" height="42" viewBox="0 0 256 42" fill="none" xmlns="http://www.w3.org/2000/svg">
<path d="M9.40523 0H9.38505C4.20183 0 0 4.35886 0 9.73579V9.75673C0 15.1337 4.20183 19.4925 9.38505 19.4925H9.40523C14.5885 19.4925 18.7903 15.1337 18.7903 9.75673V9.73579C18.7903 4.35886 14.5885 0 9.40523 0Z" fill="#F20352"/>
<path d="M46.2796 15.8495L23.6142 39.2991C21.939 41.0369 19.6583 42 17.2969 42C9.32467 42 5.32845 31.992 10.9797 26.1505L17.418 19.4925L19.4969 17.336L33.6451 2.7009C35.3202 0.963111 37.5807 0 39.9623 0C47.9346 0 51.9308 10.008 46.2796 15.8495Z" fill="#F20352"/>
<path d="M76.2708 15.8495L53.6054 39.2991C51.9302 41.0369 49.6495 42 47.2881 42C39.3159 42 35.3197 31.992 40.9709 26.1505L47.4092 19.4925L49.4881 17.336L63.6363 2.7009C65.3115 0.963111 67.5719 0 69.9535 0C77.9258 0 81.922 10.008 76.2708 15.8495Z" fill="#F20352"/>
<path d="M137.062 4.96207L128.646 38.4825H119.099L113.953 16.4147L108.604 38.4825H99.0781L90.8838 4.96207H99.3202L103.962 29.3539L109.714 4.96207H118.373L123.903 29.3539L128.585 4.96207H137.062Z" fill="#FAFAFA"/>
<path d="M160.838 24.7268C160.838 24.1406 160.818 23.5753 160.757 23.01C160.576 21.0209 160.051 19.2622 159.203 17.7128C158.113 15.7029 156.6 14.1535 154.662 13.0857C152.724 11.997 150.525 11.4526 148.042 11.4526C145.56 11.4526 143.239 12.0179 141.281 13.1276C139.323 14.2373 137.789 15.8285 136.699 17.9013C135.609 19.9741 135.064 22.3818 135.064 25.1665C135.064 27.9511 135.609 30.3589 136.719 32.4317C137.83 34.5045 139.363 36.0957 141.321 37.2054C143.279 38.315 145.519 38.8803 148.042 38.8803C150.565 38.8803 152.018 38.4825 153.693 37.6869C155.368 36.8913 156.781 35.8026 157.912 34.3998C159.042 32.997 159.809 31.4267 160.233 29.668H151.857C151.09 31.3848 149.717 32.2433 147.759 32.2433C145.802 32.2433 145.338 31.8036 144.429 30.9242C143.521 30.0449 143.017 28.7886 142.895 27.1346H160.717C160.717 27.009 160.737 26.8833 160.757 26.7577C160.838 26.0668 160.858 25.3759 160.858 24.7477L160.838 24.7268ZM142.936 22.5703C143.158 21.1047 143.703 19.9741 144.611 19.1785C145.519 18.3828 146.629 17.985 147.941 17.985C149.253 17.985 150.484 18.4038 151.392 19.2203C152.321 20.0578 152.765 21.1675 152.765 22.5703H142.936Z" fill="#FAFAFA"/>
<path d="M189.215 17.8804C189.155 17.7548 189.094 17.6291 189.034 17.5035C188.065 15.6192 186.753 14.1536 185.138 13.1067C183.423 11.997 181.505 11.4317 179.386 11.4317C177.267 11.4317 176.036 11.8086 174.643 12.5833C173.251 13.337 172.201 14.342 171.454 15.5982V3.11967H163.583V38.4617H171.454V34.7348C172.221 35.9701 173.271 36.9751 174.643 37.7079C175.995 38.4617 177.57 38.8385 179.386 38.8385C181.203 38.8385 183.423 38.2732 185.138 37.1426C186.753 36.0748 188.045 34.6092 189.034 32.7039C189.094 32.5783 189.155 32.4527 189.215 32.3271C190.204 30.2543 190.709 27.8256 190.709 25.1037C190.709 22.3819 190.204 19.9322 189.215 17.8804ZM181.061 29.9821C179.951 31.1546 178.619 31.7618 177.065 31.7618C175.511 31.7618 174.179 31.1755 173.089 30.003C171.999 28.8305 171.454 27.2184 171.454 25.1875C171.454 23.1566 171.999 21.5444 173.089 20.3719C174.179 19.1994 175.511 18.6132 177.065 18.6132C178.619 18.6132 180.012 19.1994 181.102 20.351C182.192 21.5025 182.737 23.1147 182.737 25.1456C182.737 27.1765 182.192 28.7887 181.082 29.9821H181.061Z" fill="#FAFAFA"/>
<path d="M215.291 17.8804C214.282 15.8076 212.93 14.2164 211.215 13.1067C209.499 11.997 207.582 11.4317 205.462 11.4317C203.343 11.4317 202.092 11.8086 200.719 12.5833C199.347 13.337 198.277 14.342 197.531 15.5982V3.11967H189.659V13.3161C190.366 14.1536 190.991 15.0957 191.516 16.1217V16.1635L191.556 16.2054L191.738 16.5823C192.929 19.0529 193.534 21.9213 193.534 25.1247C193.534 28.3281 192.929 31.1546 191.738 33.6461L191.556 34.023V34.0648L191.516 34.1067C190.991 35.1326 190.366 36.0539 189.679 36.8914V38.4617H197.551V34.7348C198.318 35.9701 199.387 36.9751 200.74 37.7079C202.092 38.4617 203.666 38.8385 205.483 38.8385C207.299 38.8385 209.519 38.2732 211.235 37.1426C212.95 36.012 214.303 34.3998 215.312 32.3271C216.301 30.2543 216.805 27.8256 216.805 25.1037C216.805 22.3819 216.28 19.9532 215.291 17.9013V17.8804ZM207.117 29.9821C206.007 31.1546 204.675 31.7618 203.121 31.7618C201.567 31.7618 200.235 31.1755 199.145 30.003C198.055 28.8305 197.51 27.2184 197.51 25.1875C197.51 23.1566 198.055 21.5444 199.145 20.3719C200.235 19.1994 201.567 18.6132 203.121 18.6132C204.675 18.6132 206.068 19.1994 207.138 20.351C208.227 21.5025 208.772 23.1147 208.772 25.1456C208.772 27.1765 208.227 28.7887 207.117 29.9821Z" fill="#FAFAFA"/>
<path d="M227.421 3.14068H219.55V38.4827H227.421V3.14068Z" fill="#FAFAFA"/>
<path d="M256 24.7477H255.96C255.96 22.0468 255.415 19.7019 254.325 17.7128C253.235 15.7029 251.722 14.1535 249.784 13.0857C247.847 11.997 245.647 11.4526 243.164 11.4526C240.682 11.4526 238.361 12.0179 236.403 13.1276C234.445 14.2373 232.911 15.8285 231.821 17.9013C230.731 19.9741 230.187 22.3818 230.187 25.1665C230.187 27.9511 230.731 30.3589 231.842 32.4317C232.952 34.5045 234.485 36.0957 236.443 37.2054C238.401 38.315 240.641 38.8803 243.164 38.8803C245.687 38.8803 247.14 38.4825 248.836 37.6869C250.531 36.8913 251.924 35.8026 253.054 34.3998C254.184 32.997 254.951 31.4267 255.375 29.668H246.999C246.232 31.3848 244.859 32.2433 242.902 32.2433C240.944 32.2433 240.46 31.8036 239.572 30.9242C238.663 30.0449 238.159 28.7886 238.038 27.1346H255.859C255.96 26.2971 256 25.5015 256 24.7477ZM238.058 22.5703C238.28 21.1047 238.825 19.9741 239.733 19.1785C240.641 18.3828 241.751 17.985 243.063 17.985C244.375 17.985 245.606 18.4038 246.514 19.2203C247.443 20.0578 247.887 21.1675 247.887 22.5703H238.058Z" fill="#FAFAFA"/>
</svg>
